<svg width="0" height="0" class="hidden">
    <symbol id="i-down" viewBox="0 0 28.2842 28.2843" xmlns="http://www.w3.org/2000/svg" xmlns:xlink="http://www.w3.org/1999/xlink" >
        <path d="M28.2843 14.1421L14.1421 0L14.1421 2.95639e-05L26.87 12.728L14.1421 25.4559L1.41418 12.728L0 14.1421L14.1421 28.2843L28.2843 14.1421Z"  fill-rule="evenodd" />
    </symbol>

    <symbol id="i-close-modal" viewBox="0 0 28.6918 28.6917" xmlns="http://www.w3.org/2000/svg" xmlns:xlink="http://www.w3.org/1999/xlink"  fill="none">
        <path id="Vector" d="M37.5761 0L0 0" stroke="rgb(255,255,255)" stroke-width="3" transform="matrix(0.707107,0.707107,-0.707107,0.707107,1.06067,1.06067)" />
        <path id="Vector" d="M37.5761 0L0 0" stroke="rgb(255,255,255)" stroke-width="3" transform="matrix(-0.707107,0.707107,-0.707107,-0.707107,27.6311,1.06067)" />
    </symbol>

    <symbol id="i-basket" viewBox="0 0 16 16" xmlns="http://www.w3.org/2000/svg" xmlns:xlink="http://www.w3.org/1999/xlink" fill="none">
        <path d="M4.87018 15.9703C4.47018 15.8922 4.06705 15.5797 3.8983 15.2172C3.78268 14.9703 3.74205 14.7609 3.74205 14.4078L3.74205 14.1297L2.52643 14.1297C1.83268 14.1297 1.24205 14.1172 1.14518 14.0984C0.560804 13.9859 0.113929 13.5234 0.0170544 12.9234C-0.0766956 12.3578 0.223304 11.7641 0.738929 11.4922L0.954554 11.3797L0.973304 11.1984C0.985804 11.1016 1.17643 8.81406 1.3983 6.11406C1.6233 3.41719 1.81705 1.15469 1.83268 1.08906C1.94518 0.604688 2.3858 0.167187 2.87955 0.0515625C3.16393 -0.0171875 10.8827 -0.0171875 11.1671 0.0515625C11.6608 0.167187 12.1014 0.604688 12.2139 1.08906C12.2296 1.15469 12.4233 3.41719 12.6483 6.11406C12.8702 8.81406 13.0608 11.1016 13.0733 11.1984L13.0921 11.3797L13.3077 11.4922C13.8233 11.7641 14.1233 12.3578 14.0296 12.9234C13.9327 13.5234 13.4858 13.9859 12.9014 14.0984C12.8046 14.1172 12.2139 14.1297 11.5202 14.1297L10.3046 14.1297L10.3046 14.4078C10.3046 14.5578 10.2889 14.7578 10.2733 14.8516C10.1671 15.4141 9.71393 15.8672 9.15143 15.9734C8.94518 16.0109 5.07018 16.0109 4.87018 15.9703ZM9.11705 15.0047C9.30455 14.9078 9.36705 14.7609 9.36705 14.4109L9.36705 14.1297L7.0233 14.1297L4.67955 14.1297L4.67955 14.4109C4.67955 14.7547 4.74205 14.9078 4.9233 15.0016C5.0358 15.0609 5.11081 15.0641 7.01706 15.0672C8.93893 15.0672 8.99831 15.0641 9.11705 15.0047ZM12.8671 13.1297C13.0077 13.0578 13.1171 12.8797 13.1171 12.7234C13.1171 12.5672 13.0077 12.3891 12.8671 12.3172C12.7452 12.2547 12.6952 12.2547 7.0233 12.2547C1.35143 12.2547 1.30143 12.2547 1.17955 12.3172C1.03893 12.3891 0.929554 12.5672 0.929554 12.7234C0.929554 12.8734 1.03893 13.0578 1.1733 13.1266C1.2858 13.1891 1.37643 13.1891 7.01706 13.1922C12.6983 13.1922 12.7452 13.1922 12.8671 13.1297ZM12.1296 11.1859C12.1233 11.1109 11.9327 8.85156 11.7108 6.16719C11.2733 0.873437 11.3077 1.17344 11.1077 1.02344L11.0202 0.957812L7.0233 0.957812L3.02643 0.957812L2.93893 1.02344C2.73893 1.17344 2.7733 0.873437 2.3358 6.16719C2.11393 8.85156 1.9233 11.1109 1.91705 11.1859L1.8983 11.3172L7.0233 11.3172L12.1483 11.3172L12.1296 11.1859Z" fill="rgb(181.034,181.034,181.034)" fill-rule="nonzero" transform="matrix(1,0,0,-1,0.976562,16.0047)" />
        <path d="M0.246875 8.43047C0.16875 8.38984 0.10625 8.32422 0.065625 8.23672L0 8.10234L0.2375 4.24609C0.503125 -0.0695314 0.475 0.186719 0.721875 0.0585938C0.88125 -0.0195312 1.00625 -0.0195312 1.16562 0.0585938C1.25 0.102344 1.30937 0.164844 1.35312 0.255469L1.41875 0.389844L1.18125 4.24609C0.915625 8.56172 0.94375 8.30547 0.696875 8.43359C0.540625 8.51172 0.4 8.51172 0.246875 8.43047Z" fill="rgb(181.034,181.034,181.034)" fill-rule="nonzero" transform="matrix(1,0,0,-1,4.7124,14.1211)" />
        <path d="M0.24375 8.43437C0.171875 8.39687 0.1 8.325 0.0625 8.25C0 8.12812 0 8.07187 0 4.25C0 0.425 0 0.371875 0.0625 0.25C0.134375 0.109375 0.3125 0 0.46875 0C0.625 0 0.803125 0.109375 0.875 0.25C0.9375 0.371875 0.9375 0.425 0.9375 4.25C0.9375 8.075 0.9375 8.12812 0.875 8.25C0.759375 8.47812 0.478125 8.55937 0.24375 8.43437Z" fill="rgb(181.034,181.034,181.034)" fill-rule="nonzero" transform="matrix(1,0,0,-1,7.53125,14.125)" />
        <path d="M0.715625 8.43047C0.475 8.30234 0.503125 8.54609 0.2375 4.24609L0 0.389844L0.065625 0.255469C0.109375 0.164844 0.16875 0.102344 0.253125 0.0585937C0.4125 -0.0195312 0.5375 -0.0195312 0.696875 0.0585937C0.94375 0.186719 0.915625 -0.0695314 1.18125 4.24609L1.41875 8.10234L1.35312 8.23672C1.2375 8.47109 0.95625 8.55859 0.715625 8.43047Z" fill="rgb(181.034,181.034,181.034)" fill-rule="nonzero" transform="matrix(1,0,0,-1,9.86865,14.1211)" />
    </symbol>

    <symbol id="i-back-arrow" viewBox="0 0 31.0042 14.7279" xmlns="http://www.w3.org/2000/svg" xmlns:xlink="http://www.w3.org/1999/xlink" fill="none" customFrame="#000000">
        <path id="Intersect" d="M31.0041 7.66095L1.00409 7.66095L1.00409 5.66095L31.0041 5.66095L31.0041 7.66095ZM2.4183 6.66095L7.36805 11.6107C7.76403 12.0067 7.76403 12.6289 7.36805 13.0249C6.97207 13.4209 6.34982 13.4209 5.95384 13.0249L0.296984 7.36805C-0.0989947 6.97207 -0.0989947 6.34982 0.296984 5.95384L5.95384 0.296984C6.34982 -0.0989962 6.97207 -0.0989933 7.36805 0.296985C7.76403 0.692965 7.76403 1.31522 7.36805 1.7112L2.4183 6.66095Z" fill="rgb(0,0,0)" fill-rule="evenodd" />
    </symbol>

</svg>
