<svg width="0" height="0" class="hidden">
    <symbol id="i-down" viewBox="0 0 28.2842 28.2843" xmlns="http://www.w3.org/2000/svg" xmlns:xlink="http://www.w3.org/1999/xlink" >
        <path d="M28.2843 14.1421L14.1421 0L14.1421 2.95639e-05L26.87 12.728L14.1421 25.4559L1.41418 12.728L0 14.1421L14.1421 28.2843L28.2843 14.1421Z"  fill-rule="evenodd" />
    </symbol>

    <symbol id="i-close-modal" viewBox="0 0 28.6918 28.6917" xmlns="http://www.w3.org/2000/svg" xmlns:xlink="http://www.w3.org/1999/xlink"  fill="none">
        <path id="Vector" d="M37.5761 0L0 0" stroke="rgb(255,255,255)" stroke-width="3" transform="matrix(0.707107,0.707107,-0.707107,0.707107,1.06067,1.06067)" />
        <path id="Vector" d="M37.5761 0L0 0" stroke="rgb(255,255,255)" stroke-width="3" transform="matrix(-0.707107,0.707107,-0.707107,-0.707107,27.6311,1.06067)" />
    </symbol>

    <symbol id="i-basket" viewBox="0 0 16 16" xmlns="http://www.w3.org/2000/svg" xmlns:xlink="http://www.w3.org/1999/xlink" fill="none">
        <path d="M4.87018 15.9703C4.47018 15.8922 4.06705 15.5797 3.8983 15.2172C3.78268 14.9703 3.74205 14.7609 3.74205 14.4078L3.74205 14.1297L2.52643 14.1297C1.83268 14.1297 1.24205 14.1172 1.14518 14.0984C0.560804 13.9859 0.113929 13.5234 0.0170544 12.9234C-0.0766956 12.3578 0.223304 11.7641 0.738929 11.4922L0.954554 11.3797L0.973304 11.1984C0.985804 11.1016 1.17643 8.81406 1.3983 6.11406C1.6233 3.41719 1.81705 1.15469 1.83268 1.08906C1.94518 0.604688 2.3858 0.167187 2.87955 0.0515625C3.16393 -0.0171875 10.8827 -0.0171875 11.1671 0.0515625C11.6608 0.167187 12.1014 0.604688 12.2139 1.08906C12.2296 1.15469 12.4233 3.41719 12.6483 6.11406C12.8702 8.81406 13.0608 11.1016 13.0733 11.1984L13.0921 11.3797L13.3077 11.4922C13.8233 11.7641 14.1233 12.3578 14.0296 12.9234C13.9327 13.5234 13.4858 13.9859 12.9014 14.0984C12.8046 14.1172 12.2139 14.1297 11.5202 14.1297L10.3046 14.1297L10.3046 14.4078C10.3046 14.5578 10.2889 14.7578 10.2733 14.8516C10.1671 15.4141 9.71393 15.8672 9.15143 15.9734C8.94518 16.0109 5.07018 16.0109 4.87018 15.9703ZM9.11705 15.0047C9.30455 14.9078 9.36705 14.7609 9.36705 14.4109L9.36705 14.1297L7.0233 14.1297L4.67955 14.1297L4.67955 14.4109C4.67955 14.7547 4.74205 14.9078 4.9233 15.0016C5.0358 15.0609 5.11081 15.0641 7.01706 15.0672C8.93893 15.0672 8.99831 15.0641 9.11705 15.0047ZM12.8671 13.1297C13.0077 13.0578 13.1171 12.8797 13.1171 12.7234C13.1171 12.5672 13.0077 12.3891 12.8671 12.3172C12.7452 12.2547 12.6952 12.2547 7.0233 12.2547C1.35143 12.2547 1.30143 12.2547 1.17955 12.3172C1.03893 12.3891 0.929554 12.5672 0.929554 12.7234C0.929554 12.8734 1.03893 13.0578 1.1733 13.1266C1.2858 13.1891 1.37643 13.1891 7.01706 13.1922C12.6983 13.1922 12.7452 13.1922 12.8671 13.1297ZM12.1296 11.1859C12.1233 11.1109 11.9327 8.85156 11.7108 6.16719C11.2733 0.873437 11.3077 1.17344 11.1077 1.02344L11.0202 0.957812L7.0233 0.957812L3.02643 0.957812L2.93893 1.02344C2.73893 1.17344 2.7733 0.873437 2.3358 6.16719C2.11393 8.85156 1.9233 11.1109 1.91705 11.1859L1.8983 11.3172L7.0233 11.3172L12.1483 11.3172L12.1296 11.1859Z" fill="rgb(181.034,181.034,181.034)" fill-rule="nonzero" transform="matrix(1,0,0,-1,0.976562,16.0047)" />
        <path d="M0.246875 8.43047C0.16875 8.38984 0.10625 8.32422 0.065625 8.23672L0 8.10234L0.2375 4.24609C0.503125 -0.0695314 0.475 0.186719 0.721875 0.0585938C0.88125 -0.0195312 1.00625 -0.0195312 1.16562 0.0585938C1.25 0.102344 1.30937 0.164844 1.35312 0.255469L1.41875 0.389844L1.18125 4.24609C0.915625 8.56172 0.94375 8.30547 0.696875 8.43359C0.540625 8.51172 0.4 8.51172 0.246875 8.43047Z" fill="rgb(181.034,181.034,181.034)" fill-rule="nonzero" transform="matrix(1,0,0,-1,4.7124,14.1211)" />
        <path d="M0.24375 8.43437C0.171875 8.39687 0.1 8.325 0.0625 8.25C0 8.12812 0 8.07187 0 4.25C0 0.425 0 0.371875 0.0625 0.25C0.134375 0.109375 0.3125 0 0.46875 0C0.625 0 0.803125 0.109375 0.875 0.25C0.9375 0.371875 0.9375 0.425 0.9375 4.25C0.9375 8.075 0.9375 8.12812 0.875 8.25C0.759375 8.47812 0.478125 8.55937 0.24375 8.43437Z" fill="rgb(181.034,181.034,181.034)" fill-rule="nonzero" transform="matrix(1,0,0,-1,7.53125,14.125)" />
        <path d="M0.715625 8.43047C0.475 8.30234 0.503125 8.54609 0.2375 4.24609L0 0.389844L0.065625 0.255469C0.109375 0.164844 0.16875 0.102344 0.253125 0.0585937C0.4125 -0.0195312 0.5375 -0.0195312 0.696875 0.0585937C0.94375 0.186719 0.915625 -0.0695314 1.18125 4.24609L1.41875 8.10234L1.35312 8.23672C1.2375 8.47109 0.95625 8.55859 0.715625 8.43047Z" fill="rgb(181.034,181.034,181.034)" fill-rule="nonzero" transform="matrix(1,0,0,-1,9.86865,14.1211)" />
    </symbol>

    <symbol id="i-back-arrow" viewBox="0 0 31.0042 14.7279" xmlns="http://www.w3.org/2000/svg" xmlns:xlink="http://www.w3.org/1999/xlink" fill="none" customFrame="#000000">
        <path id="Intersect" d="M31.0041 7.66095L1.00409 7.66095L1.00409 5.66095L31.0041 5.66095L31.0041 7.66095ZM2.4183 6.66095L7.36805 11.6107C7.76403 12.0067 7.76403 12.6289 7.36805 13.0249C6.97207 13.4209 6.34982 13.4209 5.95384 13.0249L0.296984 7.36805C-0.0989947 6.97207 -0.0989947 6.34982 0.296984 5.95384L5.95384 0.296984C6.34982 -0.0989962 6.97207 -0.0989933 7.36805 0.296985C7.76403 0.692965 7.76403 1.31522 7.36805 1.7112L2.4183 6.66095Z" fill="rgb(0,0,0)" fill-rule="evenodd" />
    </symbol>

    <symbol id="i-close-catalog" viewBox="0 0 10.5625 10.5626" xmlns="http://www.w3.org/2000/svg" xmlns:xlink="http://www.w3.org/1999/xlink" fill="none" >
        <path id="Vector" d="M13.9377 0L0 0" stroke="rgb(255,255,255)" stroke-width="1" transform="matrix(-0.707107,0.707107,0.707107,0.707107,10.209,0.353546)" />
        <path id="Vector" d="M13.9377 0L0 0" stroke="rgb(255,255,255)" stroke-width="1" transform="matrix(0.707107,0.707107,0.707107,-0.707107,0.353516,0.353546)" />
    </symbol>

    <symbol id="i-folder" viewBox="0 0 23.0498 18.0234" xmlns="http://www.w3.org/2000/svg" xmlns:xlink="http://www.w3.org/1999/xlink" fill="none" customFrame="#000000">
        <path id="Vector" d="M2.01121 0.00591289C2.09711 0.00533235 2.09711 0.00533235 2.18474 0.00474008C2.3404 0.00373768 2.49605 0.00385979 2.65172 0.00426038C2.78242 0.00449168 2.91311 0.0041609 3.04381 0.00383488C3.35263 0.00307372 3.66143 0.00322882 3.97025 0.00398265C4.28705 0.00474159 4.60383 0.00403258 4.92063 0.00258006C5.19419 0.00137411 5.46774 0.00105581 5.7413 0.00143523C5.90399 0.00165484 6.06666 0.00156725 6.22935 0.000636183C7.09995 -0.00383469 7.81028 -0.000321329 8.51501 0.568939C8.57755 0.614801 8.57755 0.614801 8.64135 0.66159C8.76567 0.771697 8.86356 0.885851 8.96423 1.01816C8.96423 1.04781 8.96423 1.07745 8.96423 1.108C8.99085 1.10793 9.01747 1.10786 9.04489 1.10779C10.6234 1.10377 12.2019 1.10069 13.7805 1.09883C13.9701 1.0986 14.1598 1.09837 14.3494 1.09813C14.4061 1.09806 14.4061 1.09806 14.4638 1.09799C15.0747 1.09721 15.6855 1.09579 16.2964 1.09414C16.9235 1.09246 17.5505 1.09146 18.1776 1.09109C18.5644 1.09085 18.9511 1.09007 19.3379 1.08861C19.6033 1.08766 19.8687 1.08737 20.1341 1.08761C20.2871 1.08772 20.4401 1.08755 20.5931 1.08658C20.7594 1.08568 20.9256 1.0859 21.0919 1.08639C21.1397 1.08587 21.1876 1.08535 21.2369 1.08481C21.7469 1.08885 22.1606 1.24887 22.5306 1.60214C22.9468 2.03813 23.052 2.5028 23.0476 3.09217C23.0479 3.14985 23.0482 3.20752 23.0484 3.26694C23.0492 3.4257 23.0488 3.58445 23.0483 3.74321C23.0479 3.91494 23.0485 4.08666 23.049 4.25839C23.0498 4.59429 23.0496 4.93017 23.0491 5.26607C23.0487 5.53917 23.0486 5.81226 23.0488 6.08537C23.0489 6.1243 23.0489 6.16324 23.0489 6.20336C23.049 6.28247 23.049 6.36159 23.0491 6.4407C23.0496 7.18174 23.049 7.92277 23.048 8.66381C23.0472 9.29901 23.0474 9.93421 23.0482 10.5694C23.0492 11.3079 23.0495 12.0463 23.049 12.7848C23.0489 12.8636 23.0489 12.9424 23.0488 13.0213C23.0488 13.06 23.0488 13.0988 23.0487 13.1388C23.0486 13.4114 23.0488 13.684 23.0493 13.9566C23.0498 14.2891 23.0496 14.6215 23.0487 14.954C23.0482 15.1234 23.048 15.2929 23.0486 15.4624C23.0493 15.6464 23.0485 15.8304 23.0476 16.0145C23.048 16.0676 23.0484 16.1207 23.0488 16.1754C23.0439 16.702 22.8968 17.1209 22.5306 17.5045C22.0234 17.9888 21.4764 18.0251 20.8087 18.0214C20.7252 18.0217 20.6418 18.0219 20.5583 18.0223C20.3299 18.023 20.1015 18.0227 19.8731 18.0221C19.6264 18.0217 19.3797 18.0223 19.133 18.0228C18.6501 18.0236 18.1672 18.0235 17.6843 18.0229C17.2918 18.0225 16.8993 18.0225 16.5067 18.0227C16.4508 18.0227 16.395 18.0227 16.3374 18.0228C16.2238 18.0228 16.1103 18.0229 15.9967 18.0229C14.9626 18.0234 13.9285 18.0229 12.8944 18.022C11.951 18.0211 11.0076 18.0212 10.0642 18.0221C9.00354 18.023 7.94288 18.0234 6.88221 18.0228C6.76908 18.0228 6.65595 18.0227 6.54282 18.0227C6.48716 18.0226 6.4315 18.0226 6.37415 18.0226C5.98217 18.0224 5.59019 18.0227 5.1982 18.0231C4.72042 18.0236 4.24264 18.0235 3.76486 18.0225C3.52115 18.0221 3.27745 18.0219 3.03374 18.0225C2.81051 18.023 2.5873 18.0227 2.36407 18.0217C2.28346 18.0215 2.20284 18.0216 2.12222 18.0221C1.4938 18.0252 0.990815 17.955 0.518918 17.5045C0.0895204 17.0547 -0.00228182 16.58 0.0019604 15.9735C0.00175297 15.9108 0.0014673 15.8481 0.00111095 15.7854C0.000365357 15.6144 0.000729497 15.4433 0.00128814 15.2723C0.00169638 15.0873 0.00106638 14.9024 0.000573043 14.7174C-0.000224333 14.3556 -5.41233e-05 13.9937 0.000467483 13.6319C0.000873928 13.3377 0.000928063 13.0436 0.000732753 12.7494C0.000705219 12.7074 0.000677668 12.6655 0.000649299 12.6223C0.000591846 12.5371 0.000533561 12.4519 0.000474509 12.3667C-3.74015e-05 11.5686 0.000550488 10.7705 0.00151674 9.97242C0.0023195 9.28819 0.00218011 8.60395 0.00135172 7.91972C0.000389276 7.12439 1.19709e-05 6.32907 0.000563275 5.53374C0.000620512 5.44887 0.000677022 5.364 0.000732753 5.27912C0.000760475 5.23737 0.00078816 5.19562 0.000816722 5.1526C0.000971615 4.85891 0.000710575 4.56522 0.000287209 4.27154C-0.000217679 3.91344 -7.84522e-05 3.55535 0.000876699 3.19725C0.00134768 3.01468 0.00153603 2.83212 0.00093976 2.64954C0.000401419 2.48217 0.000703345 2.31482 0.00165452 2.14745C0.00194797 2.05875 0.00136627 1.97004 0.000745777 1.88134C0.005467 1.34159 0.142616 0.918203 0.518918 0.524017C0.955424 0.107315 1.42119 0.0026513 2.01121 0.00591289Z" fill="rgb(252,211,83)" fill-rule="nonzero" />
        <path id="Vector" d="M8.96436 1.10803C10.5698 1.10392 12.1752 1.10075 13.7806 1.09886C13.9702 1.09863 14.1599 1.0984 14.3496 1.09816C14.4062 1.09809 14.4062 1.09809 14.464 1.09802C15.0748 1.09724 15.6857 1.09582 16.2965 1.09417C16.9236 1.09249 17.5507 1.09149 18.1777 1.09113C18.5645 1.09088 18.9512 1.0901 19.338 1.08864C19.6034 1.08769 19.8688 1.08741 20.1342 1.08764C20.2872 1.08775 20.4402 1.08758 20.5932 1.08661C20.7595 1.08572 20.9257 1.08594 21.092 1.08642C21.1638 1.08564 21.1638 1.08564 21.237 1.08484C21.7471 1.08888 22.1607 1.2489 22.5308 1.60217C22.9018 1.99082 23.047 2.40929 23.0407 2.94325C23.0384 3.01739 23.0384 3.01739 23.0361 3.09302C23.0353 3.14435 23.0345 3.19569 23.0337 3.24858C23.0316 3.37365 23.0286 3.49863 23.0249 3.62366C21.5374 3.62674 20.0498 3.62912 18.5623 3.63054C18.3867 3.63071 18.211 3.63088 18.0354 3.63106C18.0004 3.6311 17.9654 3.63113 17.9294 3.63117C17.3633 3.63175 16.7973 3.63282 16.2312 3.63406C15.6503 3.63532 15.0693 3.63606 14.4884 3.63634C14.13 3.63652 13.7716 3.63711 13.4132 3.6382C13.1383 3.639 12.8634 3.63908 12.5885 3.6389C12.4757 3.63894 12.363 3.63921 12.2503 3.63972C12.0964 3.64039 11.9425 3.64023 11.7886 3.63986C11.744 3.64026 11.6995 3.64065 11.6536 3.64105C11.263 3.63853 10.9695 3.54837 10.6795 3.27867C10.514 3.10252 10.3683 2.91152 10.2216 2.71978C10.0832 2.53887 9.93969 2.36241 9.79541 2.18616C9.60266 1.94987 9.4114 1.71252 9.22266 1.47302C9.20172 1.44656 9.18079 1.4201 9.15922 1.39283C9.01472 1.20876 9.01472 1.20876 8.96436 1.10803Z" fill="rgb(254,177,37)" fill-rule="nonzero" />
    </symbol>

    <symbol id="i-opened-check" viewBox="0 0 9 9" xmlns="http://www.w3.org/2000/svg" xmlns:xlink="http://www.w3.org/1999/xlink" width="9.000000" height="9.000000" fill="none" customFrame="#000000">
        <rect width="9.000000" height="9.000000" x="0.000000" y="0.000000" fill="rgb(242,244,246)" />
        <rect width="8.000000" height="8.000000" x="0.500000" y="0.500000" stroke="rgb(151.611,151.611,151.611)" stroke-width="1" />
        <line x1="2" x2="7" y1="4.5" y2="4.5" stroke="rgb(151.611,151.611,151.611)" stroke-width="1" />
    </symbol>

    <symbol id="i-initial-check" viewBox="0 0 9 9" xmlns="http://www.w3.org/2000/svg" xmlns:xlink="http://www.w3.org/1999/xlink" width="9.000000" height="9.000000" fill="none" customFrame="#000000">
        <rect width="9.000000" height="9.000000" x="0.000000" y="0.000000" fill="rgb(242,244,246)" />
        <rect width="8.000000" height="8.000000" x="0.500000" y="0.500000" stroke="rgb(151.611,151.611,151.611)" stroke-width="1" />
        <line x1="0" x2="5" y1="0" y2="0" stroke="rgb(151.611,151.611,151.611)" stroke-width="1" transform="matrix(-3.27834e-08,1,-1,-3.27834e-08,4.5,2)" />
        <line x1="2" x2="7" y1="4.5" y2="4.5" stroke="rgb(151.611,151.611,151.611)" stroke-width="1" />
    </symbol>
</svg>
